<?xml version="1.0" encoding="utf-8"?>
<!-- Generator: Adobe Illustrator 15.0.2, SVG Export Plug-In . SVG Version: 6.00 Build 0)  -->
<!DOCTYPE svg PUBLIC "-//W3C//DTD SVG 1.1//EN" "http://www.w3.org/Graphics/SVG/1.1/DTD/svg11.dtd">
<svg version="1.1" id="Layer_1" xmlns="http://www.w3.org/2000/svg" xmlns:xlink="http://www.w3.org/1999/xlink" x="0px" y="0px"
	 width="62px" height="61px" viewBox="0 0 62 61" enable-background="new 0 0 62 61" xml:space="preserve">
<g>
	<g>
		<linearGradient id="SVGID_1_" gradientUnits="userSpaceOnUse" x1="31.5005" y1="57.5005" x2="31.5005" y2="2.5">
			<stop  offset="0" style="stop-color:#FF5800"/>
			<stop  offset="1" style="stop-color:#FF9200"/>
		</linearGradient>
		<path fill="url(#SVGID_1_)" d="M59,49.705c0,4.305-3.491,7.796-7.796,7.796H11.796C7.491,57.5,4,54.01,4,49.705V10.296
			C4,5.991,7.491,2.5,11.796,2.5h39.409C55.51,2.5,59,5.991,59,10.296V49.705z"/>
		<g>
			<g> <!-- opacity of 0.22 was replaced by fill of C75A00 -->
				<path fill="#C75A00" d="M50.204,38.145c-1.036-1.42-2.287-2.536-3.598-3.313l0,0c-0.005-0.004-0.011-0.006-0.017-0.009
					c-0.126-0.075-0.253-0.153-0.38-0.221c-0.812-0.463-1.567-0.893-2.103-2.102l-0.769-2.82c-0.037-0.372-0.121-0.903-0.27-1.643
					c-0.619-3.034-0.612-4.323,0.569-6.422c0.044-0.071,0.084-0.142,0.125-0.215c0.048-0.084,0.095-0.166,0.148-0.253l-0.029,0.013
					c1.229-2.529,0.667-6.303-1.675-9.512c-3.018-4.134-7.835-5.755-10.758-3.62c-2.25,1.641-2.717,5.024-1.445,8.379
					c0.37,1.069-0.468,2.988-2.228,4.446l-5.43,3.993c-2.087,1.307-3.197,1.458-5.294,0.89c-2.022-0.743-4.052-0.655-5.57,0.454
					c-2.924,2.134-2.848,7.216,0.169,11.349c3.019,4.135,7.834,5.756,10.76,3.622c0.251-0.185,0.474-0.397,0.68-0.621
					c0.951-0.955,1.565-1.521,3.273-1.112l0.857,0.255c0.212,0.073,0.37,0.118,0.503,0.149l6.258,1.857
					c2.59,1.003,3.761,1.366,4.583,2.479c0.298,0.58,0.646,1.153,1.051,1.707c3.019,4.136,7.834,5.756,10.76,3.622
					C53.3,47.36,53.222,42.278,50.204,38.145z M25.709,36.886c-0.871-0.708-1.101-1.625-1.516-3.13l-0.008,0.023
					c-0.351-1.272-0.96-2.563-1.818-3.781l0.015-0.009c-0.656-0.937-0.597-1.855,1.437-3.405c0.125-0.095,0.224-0.179,0.307-0.256
					l4.179-3.073c2.409-1.56,4-2.411,5.719-1.378c1.18,0.925,2.453,1.561,3.702,1.862c0.871,0.274,1.551,0.64,2.226,2.076
					l1.871,6.859c-0.15,0.481-0.628,0.787-1.694,1.445c-0.234,0.116-0.466,0.248-0.683,0.406c-1.083,0.789-1.75,1.985-2.015,3.384
					c-0.289,1.151-2.438,1.52-4.551,1.105L25.709,36.886z M19.76,39.261c-0.352,0-0.697-0.173-0.902-0.491
					c-0.225-0.349-0.222-0.779-0.029-1.115c-0.079-0.527-0.646-2.015-1.915-3.989c-1.27-1.972-2.388-3.106-2.834-3.397
					c-0.385,0.036-0.776-0.139-1.001-0.486c-0.321-0.497-0.178-1.161,0.319-1.482c0.305-0.196,0.683-0.257,1.065-0.177
					c1.546,0.334,3.646,3.438,4.254,4.383c1.583,2.46,3.148,5.599,1.623,6.584C20.161,39.205,19.959,39.261,19.76,39.261z
					 M47.726,47.597c-0.353,0-0.697-0.173-0.902-0.491c-0.225-0.349-0.222-0.778-0.029-1.116c-0.079-0.526-0.646-2.014-1.916-3.989
					c-1.269-1.973-2.388-3.106-2.835-3.396c-0.382,0.035-0.778-0.139-1.003-0.487c-0.32-0.498-0.177-1.161,0.321-1.482
					c1.124-0.724,2.385,0.554,2.86,1.034c0.775,0.785,1.649,1.911,2.46,3.172c1.582,2.461,3.147,5.601,1.623,6.584
					C48.126,47.542,47.924,47.597,47.726,47.597z M39.728,21.1c-0.352,0-0.698-0.173-0.902-0.492
					c-0.224-0.348-0.222-0.777-0.029-1.113c-0.079-0.527-0.647-2.016-1.916-3.989s-2.388-3.108-2.834-3.398
					c-0.385,0.031-0.778-0.139-1.002-0.488c-0.32-0.499-0.175-1.162,0.323-1.481c1.531-0.979,3.735,1.748,5.317,4.208
					c1.583,2.461,3.149,5.601,1.623,6.583C40.127,21.045,39.926,21.1,39.728,21.1z"/>
			</g>
			<g>
				<path fill="#FFFFFF" d="M50.204,39.217c-1.036-1.42-2.287-2.536-3.598-3.313l0,0c-0.005-0.004-0.011-0.006-0.017-0.009
					c-0.126-0.075-0.253-0.153-0.38-0.221c-0.812-0.463-1.567-0.893-2.103-2.102l-0.769-2.82c-0.037-0.372-0.121-0.903-0.27-1.643
					c-0.619-3.034-0.612-4.323,0.569-6.422c0.044-0.071,0.084-0.142,0.125-0.215c0.048-0.084,0.095-0.166,0.148-0.253l-0.029,0.013
					c1.229-2.529,0.667-6.303-1.675-9.512c-3.018-4.134-7.835-5.755-10.758-3.62c-2.25,1.641-2.717,5.024-1.445,8.379
					c0.37,1.069-0.468,2.988-2.228,4.446l-5.43,3.993c-2.087,1.307-3.197,1.458-5.294,0.89c-2.022-0.743-4.052-0.655-5.57,0.454
					c-2.924,2.134-2.848,7.216,0.169,11.349c3.019,4.135,7.834,5.756,10.76,3.622c0.251-0.185,0.474-0.397,0.68-0.621
					c0.951-0.955,1.565-1.521,3.273-1.112l0.857,0.255c0.212,0.073,0.37,0.118,0.503,0.149l6.258,1.857
					c2.59,1.003,3.761,1.366,4.583,2.479c0.298,0.58,0.646,1.153,1.051,1.707c3.019,4.136,7.834,5.756,10.76,3.622
					C53.3,48.433,53.222,43.351,50.204,39.217z M25.709,37.958c-0.871-0.708-1.101-1.625-1.516-3.13l-0.008,0.023
					c-0.351-1.272-0.96-2.563-1.818-3.781l0.015-0.009c-0.656-0.937-0.597-1.855,1.437-3.405c0.125-0.095,0.224-0.179,0.307-0.256
					l4.179-3.073c2.409-1.56,4-2.411,5.719-1.378c1.18,0.925,2.453,1.561,3.702,1.862c0.871,0.274,1.551,0.64,2.226,2.076
					l1.871,6.859c-0.15,0.481-0.628,0.787-1.694,1.445c-0.234,0.116-0.466,0.248-0.683,0.406c-1.083,0.789-1.75,1.985-2.015,3.384
					c-0.289,1.151-2.438,1.52-4.551,1.105L25.709,37.958z M19.76,40.333c-0.352,0-0.697-0.173-0.902-0.491
					c-0.225-0.349-0.222-0.779-0.029-1.115c-0.079-0.527-0.646-2.015-1.915-3.989c-1.27-1.972-2.388-3.106-2.834-3.397
					c-0.385,0.036-0.776-0.139-1.001-0.486c-0.321-0.497-0.178-1.161,0.319-1.482c0.305-0.196,0.683-0.257,1.065-0.177
					c1.546,0.334,3.646,3.438,4.254,4.383c1.583,2.46,3.148,5.599,1.623,6.584C20.161,40.277,19.959,40.333,19.76,40.333z
					 M47.726,48.669c-0.353,0-0.697-0.173-0.902-0.491c-0.225-0.349-0.222-0.778-0.029-1.116c-0.079-0.526-0.646-2.014-1.916-3.989
					c-1.269-1.973-2.388-3.106-2.835-3.396c-0.382,0.035-0.778-0.139-1.003-0.487c-0.32-0.498-0.177-1.161,0.321-1.482
					c1.124-0.724,2.385,0.554,2.86,1.034c0.775,0.785,1.649,1.911,2.46,3.172c1.582,2.461,3.147,5.601,1.623,6.584
					C48.126,48.614,47.924,48.669,47.726,48.669z M39.728,22.172c-0.352,0-0.698-0.173-0.902-0.492
					c-0.224-0.348-0.222-0.777-0.029-1.113c-0.079-0.527-0.647-2.016-1.916-3.989s-2.388-3.108-2.834-3.398
					c-0.385,0.031-0.778-0.139-1.002-0.488c-0.32-0.499-0.175-1.162,0.323-1.481c1.531-0.979,3.735,1.748,5.317,4.208
					c1.583,2.461,3.149,5.601,1.623,6.583C40.127,22.117,39.926,22.172,39.728,22.172z"/>
			</g>
		</g>
	</g>
</g>
</svg>
